<svg xmlns="http://www.w3.org/2000/svg" viewBox="0 0 100 100" width="32" height="32">
  <defs>
    <radialGradient id="favicon-gradient" cx="50%" cy="50%" r="50%" fx="50%" fy="50%">
      <stop offset="0%" stop-color="#FFDD00" />
      <stop offset="40%" stop-color="#FF9500" />
      <stop offset="70%" stop-color="#FF5E3A" />
      <stop offset="100%" stop-color="#FF2D55" />
    </radialGradient>
  </defs>
  <circle cx="50" cy="50" r="48" fill="#FFFFFF" />
  <g transform="translate(50, 50) scale(0.25)">
    <path d="M0,-180 C-20,-160 -40,-120 -30,-80 C-50,-100 -80,-120 -100,-100 C-80,-80 -60,-60 -50,-40 C-70,-50 -90,-40 -100,-20 C-80,-20 -60,-10 -40,0 C-60,20 -80,40 -70,60 C-50,40 -30,20 -10,30 C-20,50 -30,70 -20,90 C0,70 20,50 30,30 C40,50 50,70 40,90 C60,70 80,50 70,30 C90,40 110,50 100,20 C80,10 60,0 40,0 C60,-10 80,-20 70,-40 C50,-30 30,-20 20,-40 C40,-60 60,-80 50,-100 C30,-80 10,-60 0,-80 C-10,-60 -20,-40 -10,-20 C0,-40 10,-60 0,-80 C10,-100 20,-120 10,-140 C0,-120 -10,-100 -20,-120 C-10,-140 0,-160 0,-180 Z" 
          fill="url(#favicon-gradient)" stroke="#FF3B30" stroke-width="2" />
  </g>
</svg>