<svg xmlns="http://www.w3.org/2000/svg" viewBox="0 0 512 128" width="256" height="64">
  <defs>
    <linearGradient id="logo-gradient" x1="0%" y1="0%" x2="100%" y2="0%">
      <stop offset="0%" stop-color="#FF9500" />
      <stop offset="50%" stop-color="#FF5E3A" />
      <stop offset="100%" stop-color="#FF2D55" />
    </linearGradient>
  </defs>
  <!-- Phoenix Icon -->
  <g transform="translate(48, 64) scale(0.4)">
    <path d="M0,-180 C-20,-160 -40,-120 -30,-80 C-50,-100 -80,-120 -100,-100 C-80,-80 -60,-60 -50,-40 C-70,-50 -90,-40 -100,-20 C-80,-20 -60,-10 -40,0 C-60,20 -80,40 -70,60 C-50,40 -30,20 -10,30 C-20,50 -30,70 -20,90 C0,70 20,50 30,30 C40,50 50,70 40,90 C60,70 80,50 70,30 C90,40 110,50 100,20 C80,10 60,0 40,0 C60,-10 80,-20 70,-40 C50,-30 30,-20 20,-40 C40,-60 60,-80 50,-100 C30,-80 10,-60 0,-80 C-10,-60 -20,-40 -10,-20 C0,-40 10,-60 0,-80 C10,-100 20,-120 10,-140 C0,-120 -10,-100 -20,-120 C-10,-140 0,-160 0,-180 Z" 
          fill="url(#logo-gradient)" stroke="#FF3B30" stroke-width="2" />
  </g>
  
  <!-- Text -->
  <text x="100" y="54" font-family="Arial, sans-serif" font-size="32" font-weight="bold" fill="url(#logo-gradient)">
    Phoenix Confidence
  </text>
  <text x="100" y="84" font-family="Arial, sans-serif" font-size="24" fill="#666">
    Companion
  </text>
</svg>