<svg xmlns="http://www.w3.org/2000/svg" width="100" height="100" viewBox="0 0 100 100">
  <defs>
    <pattern id="phoenix-pattern" patternUnits="userSpaceOnUse" width="100" height="100">
      <rect width="100" height="100" fill="#FFFFFF" />
      <path d="M25,25 C20,20 15,25 20,30 C25,35 30,30 25,25 Z" fill="#FFEBEE" transform="rotate(0, 25, 25)" />
      <path d="M75,25 C70,20 65,25 70,30 C75,35 80,30 75,25 Z" fill="#FFEBEE" transform="rotate(90, 75, 25)" />
      <path d="M25,75 C20,70 15,75 20,80 C25,85 30,80 25,75 Z" fill="#FFEBEE" transform="rotate(270, 25, 75)" />
      <path d="M75,75 C70,70 65,75 70,80 C75,85 80,80 75,75 Z" fill="#FFEBEE" transform="rotate(180, 75, 75)" />
      <path d="M50,50 C45,45 40,50 45,55 C50,60 55,55 50,50 Z" fill="#FFF3E0" transform="rotate(45, 50, 50)" />
      <circle cx="25" cy="25" r="2" fill="#FF9500" opacity="0.5" />
      <circle cx="75" cy="25" r="2" fill="#FF9500" opacity="0.5" />
      <circle cx="25" cy="75" r="2" fill="#FF9500" opacity="0.5" />
      <circle cx="75" cy="75" r="2" fill="#FF9500" opacity="0.5" />
      <circle cx="50" cy="50" r="3" fill="#FF5E3A" opacity="0.5" />
    </pattern>
  </defs>
  <rect width="100" height="100" fill="url(#phoenix-pattern)" />
</svg>